<?xml version="1.0" standalone="yes"?>
<svg xmlns="http://www.w3.org/2000/svg" width="814" height="814">
  <path style="fill:#040405; stroke:none;" d="M44 44L44 198L198 198L198 44L44 44M242 44L242 66L220 66L220 88L242 88L242 66L264 66L264 110L242 110L242 154L220 154L220 220L132 220L132 242L44 242L44 308L66 308L66 286L88 286L88 330L66 330L66 352L44 352L44 374L66 374L66 396L44 396L44 440L88 440L88 418L110 418L110 462L132 462L132 484L154 484L154 528L132 528L132 506L110 506L110 528L132 528L132 550L154 550L154 528L176 528L176 550L220 550L220 506L242 506L242 528L264 528L264 506L242 506L242 462L264 462L264 484L286 484L286 440L176 440L176 418L198 418L198 396L220 396L220 374L242 374L242 418L264 418L264 374L286 374L286 352L264 352L264 374L242 374L242 352L220 352L220 374L198 374L198 352L176 352L176 374L198 374L198 396L176 396L176 418L154 418L154 374L132 374L132 352L154 352L154 308L110 308L110 264L132 264L132 242L154 242L154 286L198 286L198 308L176 308L176 330L220 330L220 308L264 308L264 330L286 330L286 286L308 286L308 264L330 264L330 242L352 242L352 264L396 264L396 286L484 286L484 264L440 264L440 220L484 220L484 242L506 242L506 220L528 220L528 242L594 242L594 154L550 154L550 132L462 132L462 154L440 154L440 110L462 110L462 88L506 88L506 110L528 110L528 88L506 88L506 66L484 66L484 44L440 44L440 66L418 66L418 154L440 154L440 220L352 220L352 198L374 198L374 176L396 176L396 198L418 198L418 176L396 176L396 132L374 132L374 110L396 110L396 66L374 66L374 44L330 44L330 66L286 66L286 44L242 44M550 44L550 66L572 66L572 88L594 88L594 44L550 44M616 44L616 198L770 198L770 44L616 44M374 66L374 88L330 88L330 66L374 66M462 66L462 88L440 88L440 66L462 66M175 67L175 175L67 175L67 67L175 67M747 67L747 175L639 175L639 67L747 67M88 88L88 154L154 154L154 88L88 88M660 88L660 154L726 154L726 88L660 88M330 110L330 132L308 132L308 154L330 154L330 176L352 176L352 198L330 198L330 176L308 176L308 220L330 220L330 242L308 242L308 264L286 264L286 286L198 286L198 264L176 264L176 242L198 242L198 264L242 264L242 242L220 242L220 220L264 220L264 198L242 198L242 154L286 154L286 132L308 132L308 110L330 110M528 154L528 198L506 198L506 220L484 220L484 198L462 198L462 154L528 154M264 176L264 198L286 198L286 176L264 176M484 176L484 198L506 198L506 176L484 176M572 176L572 220L550 220L550 176L572 176M264 220L264 242L286 242L286 220L264 220M616 220L616 242L638 242L638 264L506 264L506 286L550 286L550 308L616 308L616 330L594 330L594 352L572 352L572 330L528 330L528 352L550 352L550 374L572 374L572 396L550 396L550 440L528 440L528 484L550 484L550 462L616 462L616 484L572 484L572 528L528 528L528 550L506 550L506 528L484 528L484 550L462 550L462 572L440 572L440 528L418 528L418 572L440 572L440 594L418 594L418 616L352 616L352 594L330 594L330 638L308 638L308 682L264 682L264 660L286 660L286 616L308 616L308 572L330 572L330 528L286 528L286 550L264 550L264 594L242 594L242 572L220 572L220 682L242 682L242 704L286 704L286 726L242 726L242 770L352 770L352 748L374 748L374 770L396 770L396 748L418 748L418 770L440 770L440 748L418 748L418 726L374 726L374 704L418 704L418 682L440 682L440 704L462 704L462 726L550 726L550 748L572 748L572 770L594 770L594 748L616 748L616 770L660 770L660 748L682 748L682 770L704 770L704 726L682 726L682 638L726 638L726 660L704 660L704 704L726 704L726 660L770 660L770 638L748 638L748 616L726 616L726 594L682 594L682 572L704 572L704 550L682 550L682 572L572 572L572 550L594 550L594 506L638 506L638 550L660 550L660 506L704 506L704 528L726 528L726 506L748 506L748 484L726 484L726 506L704 506L704 484L660 484L660 506L638 506L638 462L616 462L616 440L660 440L660 462L704 462L704 440L660 440L660 418L638 418L638 396L682 396L682 418L726 418L726 396L770 396L770 374L748 374L748 330L770 330L770 286L748 286L748 220L726 220L726 242L682 242L682 264L660 264L660 220L616 220M704 264L704 286L726 286L726 308L748 308L748 330L726 330L726 308L704 308L704 374L726 374L726 396L682 396L682 374L616 374L616 440L594 440L594 418L572 418L572 396L594 396L594 374L616 374L616 330L638 330L638 308L616 308L616 286L660 286L660 308L682 308L682 264L704 264M290 525C304.089 521.741 318.301 516.598 332 511.996C338.282 509.886 345.258 506.241 352 506.137C356.18 506.072 360.23 508.857 364 510.397C371.413 513.423 379.111 516.052 387 517.54C418.344 523.451 452.203 515.902 478 497.255C490.793 488.007 501.907 475.724 509.713 462C541.739 405.696 520.669 329.681 461 301.32C444.681 293.564 427.967 290 410 290C398.35 290 387.232 290.549 376 294.026C362.94 298.068 349.836 304.269 339 312.665C325.266 323.306 313.816 336.541 305.784 352C293.206 376.205 289.485 406.621 296.784 433C298.678 439.847 301.23 446.534 304.143 453C305.676 456.404 308.503 460.234 308.833 464C309.324 469.608 305.418 476.747 303.667 482C299.042 495.875 292.13 510.523 290 525M319 496C320.157 488.163 323.5 480.501 326 473C327.111 469.666 329.24 465.581 328.972 462C328.678 458.061 325.319 454.323 323.428 451C320.231 445.379 317.871 439.148 315.887 433C308.342 409.631 310.697 381.562 322.309 360C329.949 345.815 340.545 333.329 354 324.355C392.314 298.799 446.102 303.281 478.91 336.09C516.861 374.04 516.02 440.736 474.996 476.271C464.624 485.255 453.078 492.219 440 496.481C421.064 502.653 399.051 503.013 380 497.103C374.427 495.374 369.188 492.878 364 490.244C361.215 488.83 358.187 486.567 355 486.297C351.374 485.99 347.397 488.073 344 489.117C335.841 491.624 327.552 495.254 319 496M110 330L110 396L88 396L88 418L66 418L66 396L88 396L88 374L66 374L66 352L88 352L88 330L110 330M638 330L638 352L660 352L660 330L638 330M368 352.653C348.64 358.723 351.167 386.308 358.876 400C372.517 424.228 392.934 443.341 419 453.05C430.931 457.494 441.848 461.057 454 455.215C461.361 451.676 472.429 440.492 466.972 431.213C464.329 426.718 456.529 424.551 452 422.576C448.644 421.112 444.778 418.35 441.004 418.361C432.543 418.387 430.969 433.489 422 431.528C412.883 429.534 403.54 422.275 397.004 415.961C392.565 411.672 383.637 403.559 383.016 397C382.495 391.494 389.753 387.427 390.706 382C391.5 377.479 388.835 373.041 387.201 369C383.448 359.719 380.47 348.743 368 352.653M154 418L154 462L198 462L198 484L220 484L220 506L198 506L198 528L176 528L176 506L198 506L198 484L154 484L154 462L132 462L132 418L154 418M748 418L748 440L726 440L726 462L748 462L748 440L770 440L770 418L748 418M44 462L44 528L66 528L66 484L88 484L88 462L44 462M352 528L352 550L374 550L374 572L396 572L396 528L352 528M308 550L308 572L286 572L286 550L308 550M506 550L506 572L528 572L528 594L550 594L550 572L572 572L572 594L550 594L550 638L572 638L572 704L594 704L594 682L616 682L616 704L594 704L594 726L572 726L572 704L528 704L528 682L506 682L506 616L528 616L528 594L484 594L484 616L462 616L462 638L440 638L440 594L462 594L462 572L484 572L484 550L506 550M726 550L726 572L770 572L770 550L726 550M44 572L44 594L88 594L88 572L44 572M110 572L110 594L132 594L132 572L110 572M176 572L176 594L198 594L198 572L176 572M660 594L660 660L594 660L594 594L660 594M44 616L44 770L198 770L198 616L44 616M616 616L616 638L638 638L638 616L616 616M264 638L264 660L242 660L242 638L264 638M352 638L352 660L330 660L330 638L352 638M418 638L418 660L396 660L396 682L374 682L374 660L396 660L396 638L418 638M528 638L528 682L550 682L550 638L528 638M175 639L175 747L67 747L67 639L175 639M88 660L88 726L154 726L154 660L88 660M352 682L352 726L330 726L330 748L286 748L286 726L330 726L330 704L308 704L308 682L352 682M748 682L748 704L770 704L770 682L748 682M660 704L660 726L638 726L638 748L616 748L616 726L638 726L638 704L660 704M506 748L506 770L528 770L528 748L506 748M748 748L748 770L770 770L770 748L748 748z"/>
</svg>
